<svg xmlns="http://www.w3.org/2000/svg" width="1840" height="248" viewBox="0 0 1840 248" fill="none" role="img" aria-label="PPUSCHOOL"><title>PPUSCHOOL</title><g data-letter="P"><path d="M0 2.678H86C145 2.678 183 25 183 69C183 114 151 141 92 141H47V197C47 218 50 234 58 245.322H12V57C12 34 10 17 0 2.678ZM47 19H80C123 19 147 35 147 72C147 107 124 123 83 123H47V19Z" fill="currentColor" fill-rule="evenodd"/></g><g data-letter="P"><path d="M193.211 2.678H279.211C338.211 2.678 376.211 25 376.211 69C376.211 114 344.211 141 285.211 141H240.211V197C240.211 218 243.211 234 251.211 245.322H205.211V57C205.211 34 203.211 17 193.211 2.678ZM240.211 19H273.211C316.211 19 340.211 35 340.211 72C340.211 107 317.211 123 276.211 123H240.211V19Z" fill="currentColor" fill-rule="evenodd"/></g><g data-letter="U"><path d="M386.421 2.678H423.217V143.579C423.217 200.14 444.96 228.923 494.467 228.923C536.616 228.588 560.031 199.806 560.031 155.962V59.908C560.031 34.472 558.359 16.065 549.661 2.678H581.774C580.436 20.75 580.436 32.464 580.436 49.868V148.599C580.436 217.544 543.975 248 489.784 248C429.238 248 396.457 214.197 396.457 148.934V57.9C396.457 34.472 395.118 16.4 386.421 2.678Z" fill="currentColor" fill-rule="evenodd"/></g><g data-letter="S"><path d="M749.985 49H747.985C729.985 26 703.985 18 679.985 18C642.985 18 618.985 35 618.985 63C618.985 90 642.985 103 678.985 114L699.985 121C744.985 135 767.985 154 767.985 187C767.985 228 730.985 248 679.985 248C642.985 248 612.985 238 595.985 226L591.985 190H593.985C614.985 218 643.985 230 678.985 230C716.985 230 741.985 215 741.985 188C741.985 162 718.985 149 683.985 138L660.985 131C616.985 117 591.985 100 591.985 65C591.985 24 626.985 0 678.985 0C706.985 0 731.985 6 745.985 14L749.985 49Z" fill="currentColor" fill-rule="evenodd"/></g><g data-letter="C"><path d="M971.542 52.88H969.535C951.471 30.456 923.373 19.746 892.932 19.746C844.763 19.746 805.291 54.888 805.291 118.478C805.291 179.725 839.076 226.915 901.63 226.915C926.718 226.915 952.475 219.217 972.88 204.157V217.879C958.496 232.939 932.07 248 891.26 248C822.351 248 778.196 198.467 778.196 128.184C778.196 41.166 837.404 0.335 898.619 0.335C925.045 0.335 951.137 7.698 966.859 17.404L971.542 52.88Z" fill="currentColor" fill-rule="evenodd"/></g><g data-letter="H"><path d="M983.09 2.678H1020.09V113H1143.09V56C1143.09 36 1141.09 24 1133.09 2.678H1178.09V245.322H1142.09V131H1020.09V196C1020.09 217 1022.09 237 1032.09 245.322H996.09V58C996.09 35 993.09 17 983.09 2.678Z" fill="currentColor" fill-rule="evenodd"/></g><g data-letter="O"><path d="M1301.365 0C1366.594 0 1417.44 46.521 1417.44 125.506C1417.44 205.495 1361.242 248 1304.71 248C1239.481 248 1188.301 201.814 1188.301 122.829C1188.301 42.505 1244.499 0 1301.365 0ZM1307.386 228.923C1355.89 228.923 1389.675 190.769 1389.675 133.204C1389.675 63.59 1355.89 19.077 1298.354 19.077C1249.851 19.077 1216.065 57.565 1216.065 115.131C1216.065 184.745 1250.185 228.923 1307.386 228.923Z" fill="currentColor" fill-rule="evenodd"/></g><g data-letter="O"><path d="M1540.714 0C1605.943 0 1656.789 46.521 1656.789 125.506C1656.789 205.495 1600.591 248 1544.059 248C1478.83 248 1427.65 201.814 1427.65 122.829C1427.65 42.505 1483.848 0 1540.714 0ZM1546.735 228.923C1595.239 228.923 1629.024 190.769 1629.024 133.204C1629.024 63.59 1595.239 19.077 1537.703 19.077C1489.2 19.077 1455.414 57.565 1455.414 115.131C1455.414 184.745 1489.534 228.923 1546.735 228.923Z" fill="currentColor" fill-rule="evenodd"/></g><g data-letter="L"><path d="M1667 2.678H1704V227H1773C1806 227 1823 220 1838 207H1840L1831 245.322H1677V58C1677 35 1675 17 1667 2.678Z" fill="currentColor" fill-rule="evenodd"/></g></svg>
